<?xml version="1.0" encoding="utf-8"?>
<!-- Generator: Adobe Illustrator 24.1.0, SVG Export Plug-In . SVG Version: 6.00 Build 0)  -->
<svg version="1.1"
	 id="svg2" inkscape:export-filename="G:\Users\suitedoalex\sites\pix-bc-logo-0.png" inkscape:export-xdpi="561.73712" inkscape:export-ydpi="561.73712" inkscape:version="0.92.4 (5da689c313, 2019-01-14)" sodipodi:docname="pix-banco-central-logo.svg" xmlns:cc="http://creativecommons.org/ns#" xmlns:dc="http://purl.org/dc/elements/1.1/" xmlns:inkscape="http://www.inkscape.org/namespaces/inkscape" xmlns:rdf="http://www.w3.org/1999/02/22-rdf-syntax-ns#" xmlns:sodipodi="http://sodipodi.sourceforge.net/DTD/sodipodi-0.dtd" xmlns:svg="http://www.w3.org/2000/svg"
	 xmlns="http://www.w3.org/2000/svg" xmlns:xlink="http://www.w3.org/1999/xlink" x="0px" y="0px" viewBox="0 0 188 185"
	 style="enable-background:new 0 0 188 185;" xml:space="preserve">
<style type="text/css">
	.st0{fill:#32BCAD;}
</style>
<sodipodi:namedview  bordercolor="#666666" borderopacity="1" gridtolerance="10" guidetolerance="10" id="namedview4" inkscape:current-layer="g10" inkscape:cx="-338.87784" inkscape:cy="521.28724" inkscape:pageopacity="0" inkscape:pageshadow="2" inkscape:window-height="837" inkscape:window-maximized="1" inkscape:window-width="1600" inkscape:window-x="-8" inkscape:window-y="-8" inkscape:zoom="0.35923609" objecttolerance="10" pagecolor="#ffffff" showgrid="false">
	</sodipodi:namedview>
<g id="g966">
	<g id="g992" transform="translate(782.8699,645.7084)">
		<path id="path994" inkscape:connector-curvature="0" class="st0" d="M-638.5-505.5c-7.1,0-13.7-2.7-18.7-7.7l-27-27
			c-1.9-1.9-5.2-1.9-7.1,0l-27.1,27.1c-5,5-11.6,7.7-18.7,7.7h-5.3l34.2,34.2c10.7,10.7,28,10.7,38.7,0l34.3-34.3H-638.5z"/>
	</g>
	<g id="g996" transform="translate(666.4241,758.5073)">
		<path id="path998" inkscape:connector-curvature="0" class="st0" d="M-620.6-713.8c7.1,0,13.7,2.8,18.7,7.7l27.1,27.1
			c2,2,5.1,2,7.1,0l27-27c5-5,11.6-7.7,18.7-7.7h3.3l-34.3-34.3c-10.7-10.7-28-10.7-38.7,0l-34.2,34.2H-620.6z"/>
	</g>
	<g id="g1000" transform="translate(820.2131,724.8881)">
		<path id="path1002" inkscape:connector-curvature="0" class="st0" d="M-644.2-651.7l-20.7-20.7c-0.5,0.2-0.9,0.3-1.5,0.3h-9.4
			c-4.9,0-9.6,2-13.1,5.4l-27,27c-2.5,2.5-5.8,3.8-9.2,3.8c-3.3,0-6.6-1.3-9.2-3.8l-27.1-27.1c-3.4-3.4-8.2-5.4-13.1-5.4H-786
			c-0.5,0-1-0.1-1.4-0.3l-20.8,20.8c-10.7,10.7-10.7,28,0,38.7l20.8,20.8c0.4-0.2,0.9-0.3,1.4-0.3h11.6c4.9,0,9.6-2,13.1-5.4
			l27.1-27.1c4.9-4.9,13.4-4.9,18.3,0l27,27c3.4,3.4,8.2,5.4,13.1,5.4h9.4c0.5,0,1,0.1,1.5,0.3l20.7-20.7
			C-633.5-623.7-633.5-641-644.2-651.7"/>
	</g>
</g>
</svg>
